<svg width="48" height="49" viewBox="0 0 48 49" fill="none" xmlns="http://www.w3.org/2000/svg">
<g clip-path="url(#clip0_993:354)">
<path d="M46.2 10.3424V2.7501C46.2 1.70105 45.342 0.853516 44.28 0.853516H3.72003C2.65803 0.853516 1.80004 1.70105 1.80004 2.7501V10.3424C0.798037 10.4016 3.71756e-05 11.2255 3.71756e-05 12.233V20.0387C-0.00380525 21.4732 0.290253 22.8933 0.864037 24.2111C1.12204 24.8157 1.44004 25.3847 1.80004 25.924V46.3716C1.80004 47.4147 2.65803 48.2681 3.72003 48.2681H44.28C45.342 48.2681 46.2 47.4206 46.2 46.3716V25.924C46.5657 25.3833 46.879 24.8098 47.136 24.2111C47.706 22.8895 48 21.4848 48 20.0387V12.233C48 11.2255 47.202 10.4016 46.2 10.3424ZM6.12003 5.12083H41.88V10.3364H6.12003V5.12083ZM27.84 44.0068H20.16V37.8369H27.84V44.0068ZM41.904 44.0068H31.68V35.9403C31.68 34.8913 30.822 34.0438 29.76 34.0438H18.24C17.178 34.0438 16.32 34.8913 16.32 35.9403V44.0068H6.12003V29.652C6.29403 29.735 6.47403 29.8179 6.66003 29.8891C7.99803 30.4462 9.42003 30.7247 10.884 30.7247C12.348 30.7247 13.764 30.4462 15.108 29.8891C15.936 29.5453 16.716 29.1067 17.43 28.5792C17.442 28.5733 17.454 28.5733 17.466 28.5792C18.1822 29.109 18.9622 29.5489 19.788 29.8891C21.126 30.4462 22.548 30.7247 24.012 30.7247C25.476 30.7247 26.892 30.4462 28.236 29.8891C29.064 29.5453 29.844 29.1067 30.558 28.5792C30.57 28.5733 30.582 28.5733 30.594 28.5792C31.3102 29.109 32.0902 29.5489 32.916 29.8891C34.254 30.4462 35.676 30.7247 37.14 30.7247C38.604 30.7247 40.02 30.4462 41.364 29.8891C41.544 29.812 41.724 29.735 41.904 29.652V44.0068V44.0068ZM43.68 20.0387C43.68 23.5829 40.74 26.4574 37.122 26.4574C34.674 26.4574 32.538 25.1476 31.41 23.2036C31.236 22.9072 30.924 22.7235 30.576 22.7235H30.54C30.198 22.7235 29.88 22.9072 29.706 23.2036C29.1304 24.1952 28.2992 25.0187 27.297 25.5902C26.2948 26.1617 25.1572 26.4609 24 26.4574C21.558 26.4574 19.428 25.1535 18.3 23.2154C18.12 22.9132 17.796 22.7235 17.442 22.7235C17.088 22.7235 16.758 22.9132 16.584 23.2154C16.005 24.2033 15.1728 25.0231 14.1711 25.5922C13.1694 26.1613 12.0336 26.4598 10.878 26.4574C7.26003 26.4574 4.32003 23.5829 4.32003 20.0387V14.6334C4.32003 14.6156 4.33203 14.6038 4.35003 14.6038H43.65C43.668 14.6038 43.68 14.6156 43.68 14.6334V20.0387Z" fill="white"/>
</g>
<defs>
<clipPath id="clip0_993:354">
<rect width="48" height="47.4146" fill="white" transform="translate(0 0.853516)"/>
</clipPath>
</defs>
</svg>
